<svg _ngcontent-portfolio-c2413526462="" width="24" height="24" viewBox="0 0 24 24" fill="none" xmlns="http://www.w3.org/2000/svg" class="ng-tns-c2413526462-2"><path _ngcontent-portfolio-c2413526462="" opacity="0.4" d="M18.5859 13.6026L17.6194 14.3639C16.0536 15.5974 15.2707 16.2141 14.6354 15.9328C14 15.6515 14 14.6881 14 12.7613L14 11.2387C14 9.31191 14 8.34853 14.6354 8.06721C15.2707 7.7859 16.0536 8.40264 17.6194 9.63612L18.5858 10.3974C19.5286 11.1401 20 11.5115 20 12C20 12.4885 19.5286 12.8599 18.5859 13.6026Z" fill="" class="ng-tns-c2413526462-2"></path><path _ngcontent-portfolio-c2413526462="" d="M18.5859 13.6026L17.6194 14.3639C16.0536 15.5974 15.2707 16.2141 14.6354 15.9328C14 15.6515 14 14.6881 14 12.7613L14 11.2387C14 9.31191 14 8.34853 14.6354 8.06721C15.2707 7.7859 16.0536 8.40264 17.6194 9.63612L18.5858 10.3974C19.5286 11.1401 20 11.5115 20 12C20 12.4885 19.5286 12.8599 18.5859 13.6026Z" stroke="#141B34" stroke-width="1.5" stroke-linecap="round" stroke-linejoin="round" class="ng-tns-c2413526462-2"></path><path _ngcontent-portfolio-c2413526462="" d="M14 12L4 12" stroke="#141B34" stroke-width="1.5" stroke-linecap="round" stroke-linejoin="round" class="ng-tns-c2413526462-2"></path></svg>